<?xml version="1.0" encoding="iso-8859-1"?>
<!-- Generator: Adobe Illustrator 19.0.0, SVG Export Plug-In . SVG Version: 6.00 Build 0)  -->
<svg version="1.1" id="Capa_1" xmlns="http://www.w3.org/2000/svg" xmlns:xlink="http://www.w3.org/1999/xlink" x="0px" y="0px"
	 viewBox="0 0 480.144 480.144" style="enable-background:new 0 0 480.144 480.144;" xml:space="preserve">
<path style="fill:#CCCCCC;" d="M456.072,448.144v-320c0-13.255-10.745-24-24-24h-384c-13.255,0-24,10.745-24,24v320H456.072z"/>
<path style="fill:#999999;" d="M472.072,424.144v24c0,13.255-10.745,24-24,24l0,0h-416c-13.255,0-24-10.745-24-24l0,0v-24h160l16,16
	h112l16-16H472.072z"/>
<path style="fill:#29ABE2;" d="M56.072,136.144h368v240h-368V136.144z"/>
<circle style="fill:#0071BC;" cx="240.072" cy="120.144" r="112"/>
<circle style="fill:#F7931E;" cx="240.072" cy="80.144" r="32"/>
<g>
	<path style="fill:#FBB03B;" d="M264.072,112.144h-48c-22.091,0-40,17.909-40,40v59.84c38.433,26.881,89.567,26.881,128,0v-59.84
		C304.072,130.052,286.163,112.144,264.072,112.144z"/>
	<path style="fill:#FBB03B;" d="M112.072,264.144h256v64h-256V264.144z"/>
</g>
<path d="M232.072,400.144h16v16h-16V400.144z"/>
<path d="M472.072,416.144h-8v-288c0-17.673-14.327-32-32-32h-74.4c-13.188-64.949-76.531-106.909-141.48-93.72
	c-47.224,9.589-84.131,46.497-93.72,93.72h-74.4c-17.673,0-32,14.327-32,32v288h-8c-4.418,0-8,3.582-8,8v24
	c0,17.673,14.327,32,32,32h416c17.673,0,32-14.327,32-32v-24C480.072,419.726,476.49,416.144,472.072,416.144z M168.072,215.92
	v0.224h0.304c42.441,32.001,100.951,32.001,143.392,0h0.304v-0.224c23.445-17.564,39.662-43.09,45.6-71.776h58.4v224h-352v-224h58.4
	C128.41,172.83,144.627,198.356,168.072,215.92L168.072,215.92z M216.072,80.144c0-13.255,10.745-24,24-24c13.255,0,24,10.745,24,24
	s-10.745,24-24,24C226.817,104.144,216.072,93.399,216.072,80.144z M216.072,120.144h48c17.673,0,32,14.327,32,32v55.496
	c-5.074,3.298-10.428,6.144-16,8.504v-56h-16v61.096c-15.766,3.872-32.234,3.872-48,0v-61.096h-16v56
	c-5.571-2.353-10.925-5.19-16-8.48v-55.52C184.072,134.471,198.399,120.144,216.072,120.144z M240.072,16.144
	c57.371-0.064,103.932,46.392,103.996,103.763c0.032,28.354-11.528,55.488-31.996,75.109v-42.872
	c-0.029-23.673-17.313-43.79-40.712-47.384c5.601-6.986,8.672-15.662,8.712-24.616c0-22.091-17.909-40-40-40s-40,17.909-40,40
	c0.04,8.954,3.111,17.63,8.712,24.616c-23.399,3.594-40.683,23.711-40.712,47.384v42.872c-41.417-39.7-42.809-105.459-3.109-146.876
	C184.584,27.671,211.718,16.112,240.072,16.144L240.072,16.144z M32.072,128.144c0-8.837,7.163-16,16-16h72.408
	c-0.176,2.656-0.408,5.296-0.408,8s0.232,5.344,0.408,8H56.072c-4.418,0-8,3.582-8,8v240c0,4.418,3.582,8,8,8h368
	c4.418,0,8-3.582,8-8v-240c0-4.418-3.582-8-8-8h-64.408c0.176-2.656,0.408-5.296,0.408-8s-0.232-5.344-0.408-8h72.408
	c8.837,0,16,7.163,16,16v288h-136c-2.12-0.002-4.155,0.839-5.656,2.336l-13.656,13.664H187.384l-13.656-13.664
	c-1.501-1.497-3.536-2.338-5.656-2.336h-136L32.072,128.144z M464.072,448.144c0,8.837-7.163,16-16,16h-416c-8.837,0-16-7.163-16-16
	v-16H164.76l13.656,13.656c1.5,1.5,3.534,2.344,5.656,2.344h112c2.122,0,4.156-0.844,5.656-2.344l13.656-13.656h148.688V448.144z"/>
<path d="M112.072,336.144h256c4.418,0,8-3.582,8-8v-64c0-4.418-3.582-8-8-8h-256c-4.418,0-8,3.582-8,8v64
	C104.072,332.562,107.654,336.144,112.072,336.144z M120.072,272.144h240v48h-240V272.144z"/>
<path d="M232.072,288.144h16v16h-16V288.144z"/>
<path d="M264.072,288.144h16v16h-16V288.144z"/>
<path d="M296.072,288.144h16v16h-16V288.144z"/>
<path d="M328.072,288.144h16v16h-16V288.144z"/>
<path d="M136.072,288.144h16v16h-16V288.144z"/>
<path d="M168.072,288.144h16v16h-16V288.144z"/>
<path d="M200.072,288.144h16v16h-16V288.144z"/>
<g>
</g>
<g>
</g>
<g>
</g>
<g>
</g>
<g>
</g>
<g>
</g>
<g>
</g>
<g>
</g>
<g>
</g>
<g>
</g>
<g>
</g>
<g>
</g>
<g>
</g>
<g>
</g>
<g>
</g>
</svg>
