<svg id="filled_outline" height="512" viewBox="0 0 512 512" width="512" xmlns="http://www.w3.org/2000/svg" data-name="filled outline"><path d="m464 72v400a16 16 0 0 1 -16 16h-384a16 16 0 0 1 -16-16v-400z" fill="#e0edff"/><path d="m312 160a56 56 0 1 1 -56-56 55.9262 55.9262 0 0 1 56 56z" fill="#b2c6eb"/><path d="m48 72v-32a16 16 0 0 1 16-16h384a16 16 0 0 1 16 16v32z" fill="#548aff"/><path d="m288 193.12988v12.83012a56.01583 56.01583 0 0 1 -64 0v-12.83012a32.01944 32.01944 0 0 1 14.25-26.62988l9.75-6.5h16l9.75 6.5a32.01944 32.01944 0 0 1 14.25 26.62988z" fill="#ef5e3b"/><g fill="#c8dbf7"><path d="m88 328h48v48h-48z"/><path d="m88 408h48v48h-48z"/><path d="m280 328h48v48h-48z"/><path d="m280 408h48v48h-48z"/></g><rect fill="#ffceb6" height="40" rx="16" width="32" x="240" y="128"/><path d="m448 16h-384a24.0275 24.0275 0 0 0 -24 24v432a24.0275 24.0275 0 0 0 24 24h384a24.0275 24.0275 0 0 0 24-24v-432a24.0275 24.0275 0 0 0 -24-24zm-384 16h384a8.00917 8.00917 0 0 1 8 8v24h-400v-24a8.00917 8.00917 0 0 1 8-8zm384 448h-384a8.00917 8.00917 0 0 1 -8-8v-392h400v392a8.00917 8.00917 0 0 1 -8 8z"/><circle cx="80" cy="48" r="8"/><circle cx="104" cy="48" r="8"/><circle cx="128" cy="48" r="8"/><path d="m256 224a64 64 0 1 0 -64-64 64.07239 64.07239 0 0 0 64 64zm-24-22.45752v-8.41648a23.95337 23.95337 0 0 1 10.687-19.96973l.9184-.6123a23.95395 23.95395 0 0 0 24.78894.00024l.91814.61206a23.95261 23.95261 0 0 1 10.68752 19.96973v8.4165a47.82793 47.82793 0 0 1 -48 0zm32-49.54248a8 8 0 0 1 -16 0v-8a8 8 0 0 1 16 0zm-8-40a47.9681 47.9681 0 0 1 39.53937 75.17285 39.88734 39.88734 0 0 0 -16.95764-27.04858 23.88631 23.88631 0 0 0 1.41827-8.12427v-8a24 24 0 0 0 -48 0v8a23.88522 23.88522 0 0 0 1.41821 8.124 39.88754 39.88754 0 0 0 -16.95758 27.04883 47.9681 47.9681 0 0 1 39.53937-75.17283z"/><path d="m200 240h24v16h-24z"/><path d="m240 240h72v16h-72z"/><path d="m160 360h16v16h-16z"/><path d="m192 360h48v16h-48z"/><path d="m160 328h16v16h-16z"/><path d="m192 328h32v16h-32z"/><path d="m200 272h48v16h-48z"/><path d="m264 272h48v16h-48z"/><path d="m160 440h16v16h-16z"/><path d="m192 440h48v16h-48z"/><path d="m160 408h16v16h-16z"/><path d="m192 408h32v16h-32z"/><path d="m352 360h16v16h-16z"/><path d="m384 360h48v16h-48z"/><path d="m352 328h16v16h-16z"/><path d="m384 328h32v16h-32z"/><path d="m352 440h16v16h-16z"/><path d="m384 440h48v16h-48z"/><path d="m352 408h16v16h-16z"/><path d="m384 408h32v16h-32z"/><path d="m132.686 320h-44.686a8.00008 8.00008 0 0 0 -8 8v48a8.00008 8.00008 0 0 0 8 8h48a8.00008 8.00008 0 0 0 8-8v-44.686l13.65674-13.65673-11.31348-11.31446zm-4.686 48h-32v-32h20.686l-10.34278 10.34277 11.31348 11.31446 10.3433-10.34323z"/><path d="m146.34326 386.34277-13.65726 13.65723h-44.686a8.00008 8.00008 0 0 0 -8 8v48a8.00008 8.00008 0 0 0 8 8h48a8.00008 8.00008 0 0 0 8-8v-44.686l13.65674-13.65673zm-18.34326 61.65723h-32v-32h20.686l-10.34278 10.34277 11.31348 11.31446 10.3433-10.34323z"/><path d="m324.686 320h-44.686a8.00008 8.00008 0 0 0 -8 8v48a8.00008 8.00008 0 0 0 8 8h48a8.00008 8.00008 0 0 0 8-8v-44.686l13.65674-13.65673-11.31348-11.31446zm-4.686 48h-32v-32h20.686l-10.34278 10.34277 11.31348 11.31446 10.3433-10.34323z"/><path d="m338.34326 386.34277-13.65726 13.65723h-44.686a8.00008 8.00008 0 0 0 -8 8v48a8.00008 8.00008 0 0 0 8 8h48a8.00008 8.00008 0 0 0 8-8v-44.686l13.65674-13.65673zm-18.34326 61.65723h-32v-32h20.686l-10.34278 10.34277 11.31348 11.31446 10.3433-10.34323z"/></svg>